<svg width="10" height="6" viewBox="0 0 10 6" fill="none" xmlns="http://www.w3.org/2000/svg">
<path d="M5.00004 5.73946C5.08778 5.73996 5.17476 5.72315 5.25598 5.68997C5.33721 5.65679 5.41108 5.60791 5.47338 5.54612L9.47337 1.54611C9.59891 1.42058 9.66943 1.25031 9.66943 1.07278C9.66943 0.895243 9.59891 0.724979 9.47337 0.599443C9.34784 0.473907 9.17757 0.403381 9.00004 0.403381C8.82251 0.403381 8.65224 0.473907 8.52671 0.599443L5.00004 4.13279L1.47338 0.60611C1.34585 0.496892 1.1818 0.439821 1.01401 0.446302C0.846228 0.452782 0.687068 0.522338 0.568338 0.641068C0.449609 0.759798 0.380054 0.918958 0.373573 1.08674C0.367093 1.25453 0.424163 1.41858 0.533381 1.54611L4.53338 5.54612C4.65755 5.66929 4.82515 5.73872 5.00004 5.73946Z" fill="#100D22"/>
</svg>
